<?xml version="1.0" encoding="UTF-8" standalone="no"?>
<svg xmlns="http://www.w3.org/2000/svg" viewBox="0 0 1024 1024">
  <path fill="black" d="M 123.56,150.20
           C 103.08,164.43 68.94,225.30 64.96,254.31
             63.25,263.98 54.15,284.46 44.48,299.82
             22.29,333.96 23.43,352.73 50.17,431.24
             61.55,464.23 69.51,501.78 72.92,538.76
             75.77,570.04 82.03,611.00 86.58,629.78
             99.09,678.70 115.50,713.00 148.50,761.00
             169.50,791.00 180.00,801.50 207.00,824.00
             264.00,855.50 288.00,864.50 357.00,878.00
             423.00,888.50 454.50,890.00 523.50,879.50
             600.00,867.50 649.50,834.50 649.50,834.50
             649.50,834.50 714.63,781.10 714.63,781.10
             745.35,749.24 751.61,745.26 790.86,735.59
             859.13,717.96 937.64,672.44 982.01,624.66
             982.01,624.66 995.66,610.44 995.66,610.44
             995.66,610.44 971.20,578.01 971.20,578.01
             951.86,553.55 912.60,516.57 892.69,504.05
             891.56,502.92 905.78,487.56 924.55,468.78
             970.63,424.41 973.48,411.32 945.03,381.17
             910.90,345.90 860.27,315.18 807.93,299.25
             765.26,285.60 757.30,280.48 721.46,245.78
             650.92,176.37 551.93,139.96 445.55,144.52
             394.35,146.79 382.40,149.64 333.48,170.12
             303.32,182.63 271.47,195.15 262.36,196.85
             245.30,200.27 239.61,197.99 183.86,157.60
             169.07,146.79 153.14,137.69 149.16,137.69
             145.74,137.69 133.80,143.38 123.56,150.20 Z
           M 549.65,186.61
           C 609.39,200.27 656.60,226.44 702.12,271.95
             752.18,320.87 779.48,373.78 790.86,441.48
             790.86,441.48 798.26,486.99 798.26,486.99
             798.26,486.99 832.39,504.05 832.39,504.05
             875.06,526.24 906.35,550.70 933.65,583.70
             933.65,583.70 954.13,608.73 954.13,608.73
             954.13,608.73 921.71,635.47 921.71,635.47
             879.61,669.03 819.31,698.04 772.09,707.15
             737.96,713.97 732.27,717.39 697.00,752.66
             675.95,773.71 644.66,799.31 627.59,809.55
             607.68,821.49 580.50,833.00 520.50,849.50
             450.00,855.50 438.00,854.00 366.00,846.50
             295.50,830.00 253.50,810.50 253.50,810.50
             253.50,810.50 210.00,794.00 177.00,741.50
             133.50,678.50 106.49,619.54 106.49,547.29
             106.49,519.41 92.27,450.58 81.46,422.13
             78.61,415.88 82.03,413.60 93.40,413.60
             115.02,413.60 115.59,403.36 94.54,396.53
             84.87,393.12 73.49,385.72 68.94,379.47
             56.43,362.40 59.27,328.27 74.63,310.06
             74.63,310.06 88.28,294.13 88.28,294.13
             88.28,294.13 92.27,310.06 92.27,310.06
             94.54,319.16 93.97,328.84 89.42,333.96
             79.18,346.47 84.30,368.09 97.96,368.09
             107.06,368.09 109.90,363.54 111.04,343.06
             112.18,329.40 108.76,306.08 103.08,291.29
             93.97,266.83 93.97,261.71 101.37,241.80
             101.37,241.80 109.90,220.18 109.90,220.18
             109.90,220.18 160.53,220.18 160.53,220.18
             188.98,220.18 219.70,223.02 229.37,227.00
             250.99,235.54 277.16,229.85 334.61,205.39
             415.40,170.12 461.48,166.13 549.65,186.61 Z
           M 868.80,361.26
           C 879.61,368.09 898.38,382.31 909.76,392.55
             909.76,392.55 930.81,411.89 930.81,411.89
             930.81,411.89 918.86,427.82 918.86,427.82
             906.35,445.46 861.97,479.02 852.30,479.02
             840.36,479.02 823.29,456.27 823.29,440.34
             823.29,431.80 815.32,403.36 806.22,376.62
             797.12,349.88 789.16,327.70 789.16,327.13
             789.16,323.72 851.16,350.45 868.80,361.26 Z" />
  <path fill="black" d="M 342.58,337.37
           C 338.03,344.20 337.46,344.20 361.35,356.14
             391.50,371.50 403.45,395.96 400.60,434.65
             398.33,459.68 399.47,467.64 405.16,467.64
             424.50,467.64 426.20,403.36 408.00,374.35
             396.62,355.57 365.33,331.11 352.25,331.11
             348.84,331.11 344.28,333.96 342.58,337.37 Z" />
  <path fill="black" d="M 789.16,543.88
           C 789.16,547.86 802.81,558.10 819.31,566.63
             836.37,574.60 854.58,585.97 859.70,592.23
             868.80,602.47 868.80,603.61 852.87,614.99
             843.77,621.24 823.86,630.92 809.07,636.60
             776.64,648.55 768.68,661.07 793.14,661.07
             815.89,661.07 868.23,633.19 882.45,614.42
             882.45,614.42 893.83,598.49 893.83,598.49
             893.83,598.49 876.76,580.85 876.76,580.85
             860.84,563.79 811.34,535.91 796.55,535.91
             792.57,535.91 789.16,539.32 789.16,543.88 Z" />
</svg>