<svg
  version="1.0"
  xmlns="http://www.w3.org/2000/svg"
  viewBox="0 0 360.000000 360.000000"
  preserveAspectRatio="xMidYMid meet"
>
  <g
    transform="translate(0.000000,360.000000) scale(0.100000,-0.100000)"
    fill="#000000"
    stroke="none"
  >
    <path
      d="M850 3118 c-36 -25 -96 -132 -103 -183 -3 -17 -19 -53 -36 -80 -39
-60 -37 -93 10 -231 20 -58 34 -124 40 -189 5 -55 16 -127 24 -160 22 -86 78
-195 130 -253 l45 -50 0 -595 0 -595 -24 -15 c-58 -38 -72 -143 -27 -205 28
-40 127 -89 197 -98 60 -7 161 9 207 33 26 13 33 13 62 -2 90 -42 210 -42 299
0 32 16 40 16 105 1 189 -43 372 1 502 122 l57 52 68 0 c319 1 566 306 500
618 -30 142 -123 277 -238 345 -85 49 -103 31 -65 -65 63 -157 37 -329 -72
-466 -23 -28 -45 -52 -50 -52 -4 0 -11 36 -14 80 -19 240 -168 475 -387 607
-102 61 -168 113 -212 167 l-38 44 59 61 c54 56 65 63 134 80 120 31 258 111
336 195 l24 25 -43 57 c-34 43 -103 108 -138 130 -2 2 23 29 56 62 81 78 86
101 36 154 -60 62 -149 116 -241 144 -75 24 -89 33 -152 94 -124 122 -298 186
-485 178 -90 -4 -111 -9 -197 -45 -53 -22 -109 -44 -125 -47 -30 -6 -40 -2
-138 69 -26 19 -54 35 -61 35 -6 0 -27 -10 -45 -22z m749 -64 c105 -24 188
-70 268 -150 88 -86 136 -179 156 -298 l13 -80 60 -30 c75 -39 130 -82 178
-140 l36 -44 -57 -47 c-74 -59 -180 -110 -263 -126 -60 -12 -70 -18 -132 -80
-37 -37 -92 -82 -122 -100 -35 -21 -56 -40 -56 -52 0 -27 26 -31 65 -9 l34 21
43 -49 c55 -62 132 -124 230 -183 179 -110 294 -263 342 -458 21 -84 21 -233
0 -313 -67 -257 -295 -414 -546 -375 -40 6 -76 13 -80 16 -5 2 0 19 9 36 39
77 46 126 50 397 5 287 -1 345 -32 345 -19 0 -20 -9 -21 -265 -1 -286 -9 -363
-50 -447 -20 -41 -34 -56 -70 -73 -96 -47 -240 -32 -303 31 -25 24 -31 39 -31
71 0 35 6 47 40 78 l40 37 0 280 c0 250 -2 282 -16 287 -41 16 -44 -4 -44
-285 0 -172 -4 -269 -10 -269 -5 0 -23 -19 -40 -42 -34 -47 -41 -118 -14 -156
20 -30 13 -38 -47 -52 -113 -27 -244 11 -281 82 -18 33 -18 39 -4 72 8 20 29
44 46 54 l30 17 -2 616 -3 615 -47 54 c-89 101 -148 253 -148 380 0 49 -25
170 -44 220 -5 11 1 15 21 15 38 0 39 18 2 30 -17 6 -37 19 -45 30 -22 30 -17
90 10 122 l24 28 7 -28 c4 -16 3 -33 -5 -42 -18 -22 -9 -60 15 -60 16 0 21 8
23 44 2 24 -4 65 -14 91 -16 43 -16 52 -3 87 l15 38 89 0 c50 0 104 -5 121
-12 38 -15 84 -5 185 38 142 62 223 69 378 33z m561 -307 c19 -12 52 -37 72
-55 l37 -34 -21 -28 c-22 -31 -100 -90 -117 -90 -21 0 -51 40 -51 68 0 15 -14
65 -30 112 -16 47 -30 86 -30 87 0 6 109 -41 140 -60z m609 -1285 c172 -228
88 -565 -172 -691 -56 -28 -201 -60 -213 -48 -3 3 6 28 20 55 14 28 33 79 43
114 15 55 26 72 83 128 117 117 166 240 157 404 -2 56 -8 110 -13 121 -13 33
50 -22 95 -83z"
    />
    <path
      d="M1235 2789 c-8 -12 -9 -12 33 -33 53 -27 74 -70 69 -138 -4 -44 -2
-58 8 -58 34 0 37 113 5 164 -20 33 -75 76 -98 76 -6 0 -14 -5 -17 -11z"
    />
    <path
      d="M2020 2426 c0 -7 24 -25 53 -40 30 -14 62 -34 71 -45 16 -18 16 -20
-12 -40 -16 -11 -51 -28 -77 -38 -57 -21 -71 -43 -28 -43 40 0 132 49 157 82
l20 28 -30 31 c-28 30 -115 79 -141 79 -7 0 -13 -6 -13 -14z"
    />
  </g>
</svg>
